<svg xmlns="http://www.w3.org/2000/svg" width="150" height="150" viewBox="0 0 150 150"><title>dice-svgs</title><path d="M75,143.65a12.94,12.94,0,0,1-5.83-1.37L17.23,116.21a12.94,12.94,0,0,1-7.17-11.62V45.41a12.94,12.94,0,0,1,7.17-11.62L69.17,7.72h0a13.07,13.07,0,0,1,11.66,0l51.94,26.07a12.94,12.94,0,0,1,7.17,11.62v59.18a12.94,12.94,0,0,1-7.17,11.62L80.83,142.28A12.94,12.94,0,0,1,75,143.65ZM75,12.34a7,7,0,0,0-3.14.74h0L19.92,39.15a7,7,0,0,0-3.86,6.26v59.18a7,7,0,0,0,3.86,6.26l51.94,26.07a7.07,7.07,0,0,0,6.28,0l51.94-26.07a7,7,0,0,0,3.86-6.26V45.41a7,7,0,0,0-3.86-6.26L78.14,13.08A7,7,0,0,0,75,12.34Z" fill="#231f20"/></svg>